<svg width="40" height="40" viewBox="0 0 40 40" fill="none" xmlns="http://www.w3.org/2000/svg">
<path d="M20 0C8.95536 0 0 9.1875 0 20.5089C0 29.5714 5.73214 37.25 13.6786 39.9643C13.79 39.9885 13.9038 40.0005 14.0179 40C14.7589 40 15.0446 39.4554 15.0446 38.9821C15.0446 38.4911 15.0268 37.2054 15.0179 35.4911C14.3563 35.6462 13.6795 35.727 13 35.7321C9.15179 35.7321 8.27679 32.7411 8.27679 32.7411C7.36607 30.375 6.05357 29.7411 6.05357 29.7411C4.3125 28.5179 6.04464 28.4821 6.17857 28.4821H6.1875C8.19643 28.6607 9.25 30.6071 9.25 30.6071C10.25 32.3571 11.5893 32.8482 12.7857 32.8482C13.5768 32.8324 14.3557 32.6498 15.0714 32.3125C15.25 30.9911 15.7679 30.0893 16.3393 29.5714C11.9018 29.0536 7.23214 27.2946 7.23214 19.4375C7.23214 17.1964 8.00893 15.3661 9.28571 13.9375C9.08036 13.4196 8.39286 11.3304 9.48214 8.50893C9.62826 8.47397 9.77843 8.45895 9.92857 8.46429C10.6518 8.46429 12.2857 8.74107 14.9821 10.6161C18.2585 9.69938 21.7236 9.69938 25 10.6161C27.6964 8.74107 29.3304 8.46429 30.0536 8.46429C30.2037 8.45895 30.3539 8.47397 30.5 8.50893C31.5893 11.3304 30.9018 13.4196 30.6964 13.9375C31.9732 15.375 32.75 17.2054 32.75 19.4375C32.75 27.3125 28.0714 29.0446 23.6161 29.5536C24.3304 30.1875 24.9732 31.4375 24.9732 33.3482C24.9732 36.0893 24.9464 38.3036 24.9464 38.9732C24.9464 39.4554 25.2232 40 25.9643 40C26.0842 40.0005 26.2039 39.9886 26.3214 39.9643C34.2768 37.25 40 29.5625 40 20.5089C40 9.1875 31.0446 0 20 0Z" fill="black"/>
</svg>
