<svg width="100" height="100" viewBox="0 0 100 100" fill="none" xmlns="http://www.w3.org/2000/svg">
<path d="M6.25 6.25H93.75V93.75H6.25V6.25Z" fill="#F5DE19"/>
<path d="M65.0281 74.6094C65.7737 76.1237 66.9319 77.3966 68.3695 78.2812C69.807 79.1659 71.4653 79.6263 73.1531 79.6094C76.5594 79.6094 78.7375 77.9063 78.7375 75.5469C78.7375 72.7344 76.5 71.7281 72.75 70.0875L70.6938 69.2063C64.7563 66.6781 60.8188 63.5125 60.8188 56.8188C60.8188 50.6531 65.5063 45.9563 72.8594 45.9563C75.2397 45.7844 77.618 46.3171 79.6975 47.488C81.777 48.6589 83.4658 50.4162 84.5531 52.5406L78.125 56.65C77.7063 55.5966 76.9773 54.6954 76.0347 54.0659C75.092 53.4363 73.9803 53.1082 72.8469 53.125C72.3524 53.0755 71.853 53.1295 71.3805 53.2837C70.9081 53.4379 70.4729 53.6887 70.1028 54.0204C69.7326 54.352 69.4357 54.7571 69.2307 55.2098C69.0258 55.6626 68.9174 56.1531 68.9125 56.65C68.9125 59.1156 70.4406 60.1156 73.9688 61.65L76.025 62.5313C83.0125 65.5281 86.9625 68.5813 86.9625 75.4469C86.9625 82.85 81.1469 86.9063 73.3375 86.9063C70.2947 87.1001 67.2608 86.4093 64.6019 84.9171C61.9431 83.4249 59.7728 81.1952 58.3531 78.4969L65.0281 74.6094ZM35.9813 75.3219C37.2719 77.6125 38.4469 79.55 41.2719 79.55C43.9719 79.55 45.6781 78.4938 45.6781 74.3844V46.425H53.9V74.4938C53.9 83.0063 48.9 86.8813 41.6219 86.8813C39.0492 87.0219 36.4942 86.3807 34.2928 85.0421C32.0913 83.7035 30.3464 81.7301 29.2875 79.3813L35.9813 75.3219Z" fill="black"/>
</svg>
