<svg width="40" height="40" viewBox="0 0 40 40" fill="none" xmlns="http://www.w3.org/2000/svg">
<path d="M36.8008 0H3.41785C1.59375 0 0 1.3125 0 3.11517V36.5723C0 38.3848 1.59375 39.9999 3.41785 39.9999H36.791C38.6249 39.9999 39.9999 38.374 39.9999 36.5723V3.11517C40.0107 1.3125 38.6249 0 36.8008 0ZM12.3991 33.3419H6.66874V15.525H12.3991V33.3419ZM9.73213 12.816H9.69106C7.85713 12.816 6.66963 11.4509 6.66963 9.74195C6.66963 8.00177 7.88838 6.66874 9.76338 6.66874C11.6384 6.66874 12.7857 7.99195 12.8268 9.74195C12.8259 11.4509 11.6384 12.816 9.73213 12.816ZM33.3419 33.3419H27.6116V23.6C27.6116 21.266 26.7776 19.6714 24.7044 19.6714C23.1205 19.6714 22.183 20.7428 21.766 21.7866C21.6098 22.1616 21.5678 22.6723 21.5678 23.1937V33.3419H15.8375V15.525H21.5678V18.0044C22.4018 16.8169 23.7044 15.108 26.7357 15.108C30.4973 15.108 33.3428 17.5875 33.3428 22.933L33.3419 33.3419Z" fill="black"/>
</svg>
